#!OML:ASF X:\für Bonn\!DataBase\2005_08_12_Daniel\c3d\Daniel.ASF
:FULLY-SPECIFIED
:DEGREES
1
root -4.10027 16.7959 -1.25523 400.46 -84.6417 -411.65
lowerback 14.1081 -6.39385 8.80684
upperback 2.437 -7.27364 -0.260155
thorax -6.38709 -3.80234 -3.72506
lowerneck 5.95003 7.25364 4.02301
upperneck 10.5768 9.99777 -6.73174
head 3.02157 4.82663 -2.80965
rclavicle 6.22903e-014 -1.98785e-014
rhumerus -11.4755 32.9168 -62.4057
rradius 103.004
rwrist -18.6648
rhand -31.8281 37.8892
rfingers 7.12502
rthumb -5.08277 7.97014
lclavicle 6.22903e-014 -1.98785e-014
lhumerus 1.77482 -6.43866 75.8517
lradius 103.925
lwrist 30.171
lhand -19.7011 -10.4292
lfingers 7.12502
lthumb 6.6284 19.447
rfemur 3.0108 24.8253 31.4605
rtibia 30.6699
rfoot -36.2531 -13.4664
rtoes -11.2874
lfemur -14.158 -3.49601 -14.2928
ltibia 52.5699
lfoot -21.2364 -8.38701
ltoes 3.77109
2
root -4.10316 16.8022 -1.19933 403.68 -84.4955 -414.759
lowerback 14.1713 -6.79122 8.81784
upperback 2.41105 -7.77905 -0.0288528
thorax -6.48717 -4.05007 -3.35789
lowerneck 5.88554 7.40284 4.09424
upperneck 10.6767 10.207 -6.86157
head 3.09598 4.92431 -2.85879
rclavicle -2.71931e-015 1.47101e-014
rhumerus -14.1708 34.2028 -62.8361
rradius 102.368
rwrist -17.9612
rhand -32.1384 37.7236
rfingers 7.12502
rthumb -5.38239 7.81192
lclavicle -2.71931e-015 1.47101e-014
lhumerus 2.90748 -6.15779 75.5483
lradius 104.333
lwrist 30.2564
lhand -19.6209 -10.1842
lfingers 7.12502
lthumb 6.70582 19.6896
rfemur 2.5539 23.2312 30.8806
rtibia 30.5417
rfoot -34.7132 -12.5842
rtoes -11.1863
lfemur -13.5943 -3.74586 -14.333
ltibia 51.7788
lfoot -22.435 -7.9984
ltoes 3.95286
3
root -4.10209 16.8148 -1.14237 406.041 -84.3548 -417.03
lowerback 14.2898 -7.1893 8.78717
upperback 2.4071 -8.28928 0.175841
thorax -6.58769 -4.29875 -2.98893
lowerneck 5.64586 7.51363 4.0134
upperneck 10.8706 10.3507 -6.83621
head 3.20923 4.98225 -2.82133
rclavicle 7.74391e-014 -3.65764e-014
rhumerus -16.8581 35.3021 -63.4366
rradius 101.528
rwrist -17.1687
rhand -32.4097 37.6095
rfingers 7.12502
rthumb -5.6443 7.70463
lclavicle 7.74391e-014 -3.65764e-014
lhumerus 4.10048 -5.89699 75.2686
lradius 104.708
lwrist 30.3821
lhand -19.6137 -9.90866
lfingers 7.12502
lthumb 6.71274 19.9649
rfemur 2.06733 21.2508 30.1358
rtibia 30.3909
rfoot -32.9151 -11.4947
rtoes -11.1622
lfemur -13.0704 -4.04132 -14.4375
ltibia 50.9877
lfoot -23.4557 -7.56423
ltoes 4.09324
4
root -4.09829 16.8292 -1.08472 408.051 -84.2331 -418.97
lowerback 14.4498 -7.59085 8.72851
upperback 2.422 -8.80663 0.364302
thorax -6.68442 -4.54968 -2.61482
lowerneck 5.39318 7.62562 3.88423
upperneck 11.0452 10.493 -6.79089
head 3.31348 5.03817 -2.76787
rclavicle 8.36821e-014 -2.98177e-014
rhumerus -19.4073 36.2431 -64.1967
rradius 100.375
rwrist -16.4284
rhand -32.5619 37.6231
rfingers 7.12502
rthumb -5.79121 7.72228
lclavicle 8.36821e-014 -2.98177e-014
lhumerus 5.298 -5.59816 75.016
lradius 105.084
lwrist 30.536
lhand -19.5954 -9.60349
lfingers 7.12502
lthumb 6.7304 20.2695
rfemur 1.58933 19.0625 29.3235
rtibia 30.2451
rfoot -31.0524 -10.1531
rtoes -11.1051
lfemur -12.5932 -4.32384 -14.5776
ltibia 50.2322
lfoot -24.2955 -7.09008
ltoes 4.15722
5
root -4.09068 16.8407 -1.02741 409.582 -84.1289 -420.459
lowerback 14.6754 -7.99191 8.61588
upperback 2.44581 -9.32661 0.538692
thorax -6.79588 -4.80044 -2.21621
lowerneck 5.24018 7.75695 3.8359
upperneck 11.1631 10.6677 -6.81206
head 3.39271 5.11444 -2.75473
rclavicle -4.00054e-015 -2.5842e-015
rhumerus -21.9611 36.8596 -65.1894
rradius 98.8821
rwrist -15.5753
rhand -32.5841 37.7793
rfingers 7.12502
rthumb -5.81269 7.87898
lclavicle -4.00054e-015 -2.5842e-015
lhumerus 6.49633 -5.29088 74.848
lradius 105.401
lwrist 30.6729
lhand -19.6 -9.40543
lfingers 7.12502
lthumb 6.72595 20.4677
rfemur 1.13327 16.7423 28.4804
rtibia 30.1236
rfoot -29.1743 -8.57697
rtoes -10.9643
lfemur -12.1715 -4.64876 -14.736
ltibia 49.541
lfoot -24.9356 -6.66269
ltoes 4.293
6
root -4.08067 16.8513 -0.970142 410.526 -84.0792 -421.384
lowerback 14.9439 -8.37033 8.31096
upperback 2.50009 -9.84584 0.712887
thorax -6.85942 -5.04494 -1.71179
lowerneck 5.28767 7.87277 4.06371
upperneck 11.1351 10.8421 -7.03387
head 3.41941 5.20397 -2.86829
rclavicle 9.52862e-014 -2.5842e-014
rhumerus -24.5101 37.0207 -66.4011
rradius 97.0522
rwrist -14.5367
rhand -32.4933 38.1445
rfingers 7.12502
rthumb -5.72504 8.24187
lclavicle 9.52862e-014 -2.5842e-014
lhumerus 7.74719 -4.95131 74.7404
lradius 105.636
lwrist 30.8107
lhand -19.6059 -9.27391
lfingers 7.12502
lthumb 6.72032 20.5994
rfemur 0.694611 14.4489 27.61
rtibia 30.0772
rfoot -27.3471 -6.97022
rtoes -10.762
lfemur -11.7925 -5.00621 -14.9653
ltibia 48.9219
lfoot -25.4006 -6.27924
ltoes 4.46313
7
root -4.06861 16.8595 -0.914547 410.958 -84.0665 -421.816
lowerback 15.246 -8.74511 7.88413
upperback 2.57592 -10.3802 0.8858
thorax -6.8884 -5.29354 -1.13792
lowerneck 5.47153 7.98651 4.2889
upperneck 11.0067 11.0139 -7.30651
head 3.39077 5.29542 -3.00592
rclavicle 9.00867e-014 -3.29983e-014
rhumerus -27.0128 36.8067 -67.6919
rradius 95.0008
rwrist -13.4133
rhand -32.3434 38.5967
rfingers 7.12502
rthumb -5.5803 8.69014
lclavicle 9.00867e-014 -3.29983e-014
lhumerus 9.00504 -4.55546 74.6406
lradius 105.841
lwrist 30.9885
lhand -19.5866 -9.3192
lfingers 7.12502
lthumb 6.73887 20.5536
rfemur 0.244106 12.308 26.7719
rtibia 30.1703
rfoot -25.6475 -5.44072
rtoes -10.3893
lfemur -11.4564 -5.41726 -15.2414
ltibia 48.3744
lfoot -25.7343 -5.94843
ltoes 4.52562
8
root -4.05581 16.8662 -0.861377 410.963 -84.1215 -421.85
lowerback 15.554 -9.11501 7.41731
upperback 2.6849 -10.9212 1.01919
thorax -6.87324 -5.54475 -0.585431
lowerneck 5.63821 8.13027 4.27533
upperneck 10.8603 11.2044 -7.42223
head 3.33154 5.39074 -3.04623
rclavicle -6.25054e-014 5.56597e-015
rhumerus -29.4444 36.2664 -68.9833
rradius 92.8607
rwrist -12.1964
rhand -32.2143 39.0357
rfingers 7.12502
rthumb -5.45564 9.12596
lclavicle -6.25054e-014 5.56597e-015
lhumerus 10.2722 -4.15334 74.5168
lradius 106.064
lwrist 31.1825
lhand -19.6076 -9.43109
lfingers 7.12502
lthumb 6.71861 20.4423
rfemur -0.246882 10.4321 25.9628
rtibia 30.4842
rfoot -24.0834 -4.10661
rtoes -9.73226
lfemur -11.1262 -5.79242 -15.5999
ltibia 47.8916
lfoot -26.0206 -5.59117
ltoes 4.55615
9
root -4.04119 16.8704 -0.8102 410.196 -84.2342 -421.111
lowerback 15.8845 -9.48045 6.84563
upperback 2.78528 -11.4752 1.11974
thorax -6.85486 -5.80097 -0.00615942
lowerneck 5.96073 8.26848 4.2708
upperneck 10.6075 11.3846 -7.55988
head 3.20913 5.48644 -3.10428
rclavicle -6.54126e-014 1.90833e-014
rhumerus -31.8363 35.4993 -70.2311
rradius 90.7428
rwrist -10.8756
rhand -32.2084 39.3913
rfingers 7.12502
rthumb -5.44995 9.48139
lclavicle -6.54126e-014 1.90833e-014
lhumerus 11.4754 -3.70878 74.3274
lradius 106.374
lwrist 31.4544
lhand -19.5827 -9.61386
lfingers 7.12502
lthumb 6.74264 20.2588
rfemur -0.846637 8.75687 25.1422
rtibia 31.0849
rfoot -22.6103 -2.89234
rtoes -9.04063
lfemur -10.8363 -6.11988 -16.0484
ltibia 47.4621
lfoot -26.2178 -5.26278
ltoes 4.71967
10
root -4.0264 16.8729 -0.762336 409.159 -84.3653 -420.146
lowerback 16.2334 -9.83908 6.1789
upperback 2.93327 -12.0422 1.23202
thorax -6.7594 -6.06345 0.632476
lowerneck 6.23859 8.42739 4.18454
upperneck 10.3444 11.5864 -7.67805
head 3.08611 5.59019 -3.13946
rclavicle -7.21091e-014 1.11319e-014
rhumerus -34.0287 34.6659 -71.3052
rradius 88.701
rwrist -9.52703
rhand -32.4095 39.526
rfingers 7.12502
rthumb -5.64411 9.62116
lclavicle -7.21091e-014 1.11319e-014
lhumerus 12.691 -3.19803 74.1338
lradius 106.74
lwrist 31.6306
lhand -19.5501 -9.88774
lfingers 7.12502
lthumb 6.7741 19.9839
rfemur -1.5547 7.2557 24.3717
rtibia 32.013
rfoot -21.1391 -1.81863
rtoes -8.27993
lfemur -10.54 -6.3957 -16.5263
ltibia 47.0815
lfoot -26.4144 -4.907
ltoes 4.77564
